<svg xmlns="http://www.w3.org/2000/svg" xmlns:xlink="http://www.w3.org/1999/xlink" width="300" zoomAndPan="magnify" viewBox="0 0 224.87999 383.999986" height="512" preserveAspectRatio="xMidYMid meet" version="1.2"><defs><clipPath id="244dccafba"><path d="M 11 0.101562 L 214 0.101562 L 214 382 L 11 382 Z M 11 0.101562 "/></clipPath><clipPath id="81e41bee72"><path d="M 14 2.660156 L 212 2.660156 L 212 374 L 14 374 Z M 14 2.660156 "/></clipPath></defs><g id="0d08dbf0bc"><g clip-rule="nonzero" clip-path="url(#244dccafba)"><path style=" stroke:none;fill-rule:evenodd;fill:#ffffff;fill-opacity:1;" d="M 28.160156 292.738281 C 28.160156 292.738281 24.898438 251.859375 43.269531 232.308594 C 61.640625 212.757812 110.808594 167.140625 114.960938 129.8125 C 114.960938 129.8125 126.808594 152.910156 120.890625 169.507812 C 120.890625 169.507812 136.296875 149.957031 134.511719 122.109375 C 134.511719 122.109375 156.433594 58.121094 130.367188 0.0585938 C 130.367188 0.0585938 242.9375 93.671875 176.582031 206.242188 C 176.582031 206.242188 202.050781 191.429688 213.3125 168.320312 C 213.3125 168.320312 194.359375 244.15625 120.890625 282.664062 C 120.890625 282.664062 144.882812 278.222656 160.886719 267.554688 C 160.886719 267.554688 126.226562 306.359375 66.976562 317.621094 C 7.726562 328.875 22.539062 381.609375 22.539062 381.609375 C 22.539062 381.609375 -10.050781 341.914062 34.980469 305.773438 C 80.011719 269.636719 151.109375 229.34375 162.957031 171.285156 C 162.957031 171.285156 146.371094 213.945312 99.566406 245.941406 C 52.746094 277.925781 28.160156 292.738281 28.160156 292.738281 "/></g><g clip-rule="nonzero" clip-path="url(#81e41bee72)"><path style=" stroke:none;fill-rule:evenodd;fill:#c724b1;fill-opacity:1;" d="M 31.167969 286.914062 C 31.167969 286.914062 28 247.207031 45.847656 228.214844 C 63.691406 209.222656 111.449219 164.914062 115.484375 128.65625 C 115.484375 128.65625 126.992188 151.09375 121.246094 167.214844 C 121.246094 167.214844 136.210938 148.222656 134.476562 121.171875 C 134.476562 121.171875 155.769531 59.015625 130.449219 2.621094 C 130.449219 2.621094 239.796875 93.550781 175.339844 202.898438 C 175.339844 202.898438 200.078125 188.507812 211.019531 166.058594 C 211.019531 166.058594 192.605469 239.722656 121.246094 277.128906 C 121.246094 277.128906 144.550781 272.816406 160.09375 262.453125 C 160.09375 262.453125 126.425781 300.144531 68.871094 311.085938 C 11.320312 322.015625 25.707031 373.242188 25.707031 373.242188 C 25.707031 373.242188 -5.945312 334.683594 37.796875 299.578125 C 81.539062 264.476562 150.597656 225.335938 162.105469 168.941406 C 162.105469 168.941406 145.996094 210.378906 100.527344 241.457031 C 55.050781 272.527344 31.167969 286.914062 31.167969 286.914062 "/></g></g></svg>